# xmcd
#
# Track frame offsets:
#	150
#	19314
#	37982
#	55353
#	67975
#	80940
#	98163
#	113624
#	129154
#	141979
#	157525
#	176341
#	194862
#	214400
#	231423
#	246710
#	260488
#	288995
#	303351
#	319470
#
# Disc length: 4535 seconds
#
# Revision: 2
# Processed by: cddbd v1.5.2PL0 Copyright (c) Steve Scherf et al.
# Submitted via: audiograbber 1.83.01
#
DISCID=2d11b514
DTITLE=Various Artist - 70's Dance
DYEAR=2003
DGENRE=Disco
TTITLE0=DiscoTex and The Sex-O-Lettes - Get Dancin'
TTITLE1=Gonzales - I Haven't Stopped Dancing Yet
TTITLE2=Linda Carr and The Love Squad - Highwire
TTITLE3=New York City - I'm Doin' Fine Now
TTITLE4=Freda Payne - Band Of Gold
TTITLE5=Crown Heights Affair - Galaxy Of Love
TTITLE6=Shalamar - Take That To The Bank
TTITLE7=William De Vaughn - Be Thankful For What You've Got
TTITLE8=Jim Gilstrap - Swing Your Daddy
TTITLE9=Jimmy James and The Vagabonds - I'll Go Where Your Music Takes Me
TTITLE10=The Moments - Jack In The Box
TTITLE11=The Real Thing - Can You Feel The Force
TTITLE12=Shalamar - Uptown Festival
TTITLE13=Shirley and Company - Shame, Shame, Shame
TTITLE14=Sweet Sensation - Sad, Sweet Dreamer
TTITLE15=KC and The Sunshine Band - That's The Way I Like It
TTITLE16=George McCrae - Rock Your Baby
TTITLE17=Maxine Nightingale - Right Back Where We Started From
TTITLE18=Tavares - Don't Take Away The Music
TTITLE19=Timmy Thomas - Why Can't We Live Together
EXTD=
EXTT0=
EXTT1=
EXTT2=
EXTT3=
EXTT4=
EXTT5=
EXTT6=
EXTT7=
EXTT8=
EXTT9=
EXTT10=
EXTT11=
EXTT12=
EXTT13=
EXTT14=
EXTT15=
EXTT16=
EXTT17=
EXTT18=
EXTT19=
PLAYORDER=
